# xmcd CD database file generated by Grip 2.96
# 
# Track frame offsets:
#       150
#       18085
#       43735
#       61360
#       81310
#       109445
#       132197
#       150787
#       165987
#       194637
# 
# Disc length: 2868 seconds
# 
# Revision: 0
# Processed by: cddbd v1.4PL0 Copyright (c) Steve Scherf et al.
# Submitted via: Grip 2.96
# 
DISCID=7a0b320a
DTITLE=Pinetop Perkins - With the Blue Ice Band
DYEAR=1900
DGENRE=
TTITLE0=For You My Love
TTITLE1=Whiskey-Headed Woman
TTITLE2=Hi Heel Sneakers
TTITLE3=Just Keep on Drinking
TTITLE4=Baby What You Want Me to Do
TTITLE5=So Sorry
TTITLE6=Kidney Stew Blues
TTITLE7=Look on Yonders Wall
TTITLE8=Sunnyland Slim
TTITLE9=I've Got My Mojo Working
EXTD=
EXTT0=
EXTT1=
EXTT2=
EXTT3=
EXTT4=
EXTT5=
EXTT6=
EXTT7=
EXTT8=
EXTT9=
PLAYORDER=
